<svg width="32" height="32" xmlns="http://www.w3.org/2000/svg">
  <defs>
    <linearGradient x1="89.722%" y1="94.215%" x2="5.232%" y2="11.311%" id="a">
      <stop stop-color="#4FD1C5" stop-opacity=".719" offset="0%"/>
      <stop stop-color="#338CF5" stop-opacity="0" offset="100%"/>
    </linearGradient>
    <linearGradient x1="9.982%" y1="6.86%" x2="95.229%" y2="88.366%" id="b">
      <stop stop-color="#4FD1C5" stop-opacity=".719" offset="0%"/>
      <stop stop-color="#338CF5" stop-opacity="0" offset="100%"/>
    </linearGradient>
  </defs>
  <g fill="none" fill-rule="evenodd">
    <path d="m18.828 1.993 11.179 11.179a4 4 0 0 1 0 5.656L18.828 30.007a4 4 0 0 1-5.656 0L1.993 18.828a4 4 0 0 1 0-5.656L13.172 1.993a4 4 0 0 1 5.656 0ZM17.414 10.2a2 2 0 0 0-2.828 0l-4.387 4.387a2 2 0 0 0 0 2.828l4.387 4.387a2 2 0 0 0 2.828 0l4.387-4.387a2 2 0 0 0 0-2.828l-4.387-4.387Z" fill="#338CF5"/>
    <path d="m20.953 27.882-2.125 2.125a4 4 0 0 1-5.656 0L1.993 18.828a4 4 0 0 1 0-5.656l2.125-2.125 5.604 5.604c.095.279.255.54.477.763l4.387 4.387c.222.222.484.382.763.477l5.604 5.604Z" fill="url(#a)"/>
    <path d="m27.882 20.953-5.604-5.604a1.992 1.992 0 0 0-.477-.763l-4.387-4.387a1.992 1.992 0 0 0-.763-.477l-5.604-5.604 2.125-2.125a4 4 0 0 1 5.656 0l11.179 11.179a4 4 0 0 1 0 5.656l-2.125 2.125Z" fill="url(#b)"/>
  </g>
</svg>